<svg width="196" height="196" viewBox="0 0 196 196" fill="none" xmlns="http://www.w3.org/2000/svg">
<rect width="196" height="196" rx="37.0811" fill="white"/>
<path d="M139.923 98.4277V140.628C139.923 144.351 138.444 147.921 135.812 150.553C133.18 153.185 129.61 154.664 125.887 154.664C122.165 154.664 118.595 153.185 115.962 150.553C113.33 147.921 111.851 144.351 111.851 140.628V98.4277C108.959 96.2582 106.608 93.4477 104.985 90.2168C103.361 86.986 102.509 83.4228 102.494 79.807V65.7712C102.494 59.5671 104.959 53.617 109.346 49.23C113.733 44.843 119.683 42.3784 125.887 42.3784C132.091 42.3784 138.041 44.843 142.428 49.23C146.815 53.617 149.28 59.5671 149.28 65.7712V79.807C149.265 83.4228 148.413 86.986 146.789 90.2168C145.166 93.4477 142.816 96.2582 139.923 98.4277V98.4277ZM139.923 65.7712C139.923 62.0487 138.444 58.4787 135.812 55.8465C133.18 53.2143 129.61 51.7355 125.887 51.7355C122.165 51.7355 118.595 53.2143 115.962 55.8465C113.33 58.4787 111.851 62.0487 111.851 65.7712V79.807C111.851 82.2595 112.5 84.6685 113.733 86.7887C114.965 88.909 116.738 90.6648 118.869 91.8777C119.58 92.2879 120.17 92.8778 120.581 93.5881C120.991 94.2984 121.208 95.1042 121.209 95.9246V140.628C121.209 141.869 121.701 143.059 122.579 143.937C123.456 144.814 124.646 145.307 125.887 145.307C127.128 145.307 128.318 144.814 129.195 143.937C130.073 143.059 130.566 141.869 130.566 140.628V95.9246C130.567 95.1042 130.783 94.2984 131.194 93.5881C131.604 92.8778 132.194 92.2879 132.905 91.8777C135.037 90.6648 136.809 88.909 138.042 86.7887C139.274 84.6685 139.923 82.2595 139.923 79.807V65.7712Z" fill="#44403C"/>
<path fill-rule="evenodd" clip-rule="evenodd" d="M83.7799 140.628V97.7142C86.5158 96.7469 88.8845 94.9555 90.5602 92.5865C92.2359 90.2175 93.1362 87.3873 93.1371 84.4855V47.0569C93.1371 45.8161 92.6442 44.6261 91.7668 43.7487C90.8894 42.8713 89.6993 42.3784 88.4585 42.3784C87.2177 42.3784 86.0277 42.8713 85.1503 43.7487C84.2729 44.6261 83.7799 45.8161 83.7799 47.0569V84.4855C83.7799 85.7264 83.287 86.9164 82.4096 87.7938C81.5322 88.6712 80.3422 89.1641 79.1014 89.1641C77.8605 89.1641 76.6705 89.657 75.7931 90.5344C74.9157 91.4118 74.4228 92.6018 74.4228 93.8427V140.628C74.4228 141.869 73.9299 143.059 73.0525 143.937C72.1751 144.814 70.9851 145.307 69.7442 145.307C68.5034 145.307 67.3134 144.814 66.436 143.937C65.5586 143.059 65.0656 141.869 65.0656 140.628V93.8427C65.0656 92.6018 64.5727 91.4118 63.6953 90.5344C62.8179 89.657 61.6279 89.1641 60.3871 89.1641C59.1462 89.1641 57.9562 88.6712 57.0788 87.7938C56.2014 86.9164 55.7085 85.7264 55.7085 84.4855V47.0569C55.7085 45.8161 55.2156 44.6261 54.3382 43.7487C53.4608 42.8713 52.2708 42.3784 51.0299 42.3784C49.7891 42.3784 48.5991 42.8713 47.7217 43.7487C46.8443 44.6261 46.3513 45.8161 46.3513 47.0569V84.4855C46.3522 87.3873 47.2525 90.2175 48.9282 92.5865C50.6039 94.9555 52.9727 96.7469 55.7085 97.7142V140.628C55.7085 144.351 57.1872 147.921 59.8195 150.553C62.4517 153.185 66.0217 154.664 69.7442 154.664C73.4667 154.664 77.0368 153.185 79.669 150.553C82.3012 147.921 83.7799 144.351 83.7799 140.628ZM66.4359 78.4366C67.3133 79.314 68.5033 79.807 69.7442 79.807C70.985 79.807 72.175 79.314 73.0524 78.4366C73.9298 77.5592 74.4228 76.3692 74.4228 75.1284V47.0569C74.4228 45.8161 73.9298 44.6261 73.0524 43.7487C72.175 42.8713 70.985 42.3784 69.7442 42.3784C68.5033 42.3784 67.3133 42.8713 66.4359 43.7487C65.5585 44.6261 65.0656 45.8161 65.0656 47.0569V75.1284C65.0656 76.3692 65.5585 77.5592 66.4359 78.4366Z" fill="#44403C"/>
</svg>
